<mxfile host="65bd71144e">
    <diagram id="CVv5Z3MGzFZoj8nB-pyJ" name="Page-1">
        <mxGraphModel dx="1242" dy="-4889" grid="1" gridSize="10" guides="1" tooltips="1" connect="1" arrows="1" fold="1" page="1" pageScale="1" pageWidth="850" pageHeight="1100" math="0" shadow="0">
            <root>
                <mxCell id="0"/>
                <mxCell id="1" parent="0"/>
                <mxCell id="2" value="&lt;font style=&quot;font-size: 24px;&quot;&gt;&lt;b&gt;How to check if a String is a Palindrome or not&lt;/b&gt;&lt;/font&gt;" style="text;html=1;align=center;verticalAlign=middle;resizable=0;points=[];autosize=1;strokeColor=none;fillColor=none;" vertex="1" parent="1">
                    <mxGeometry x="20" y="5540" width="550" height="40" as="geometry"/>
                </mxCell>
                <mxCell id="3" value="Q8. Given a string, the task is check whether given string is palindrome or not.&lt;br&gt;&lt;br&gt;Example-- Given string -- &quot;madam&quot;&lt;br&gt;Solution -- It should return -- true&lt;br&gt;&lt;br&gt;Example -- Given string -- &quot;that&quot;&lt;br&gt;solution -- It should return -- false" style="text;html=1;align=left;verticalAlign=middle;resizable=0;points=[];autosize=1;strokeColor=none;fillColor=none;fontSize=24;" vertex="1" parent="1">
                    <mxGeometry x="20" y="5610" width="850" height="220" as="geometry"/>
                </mxCell>
                <mxCell id="4" value="m" style="rounded=0;whiteSpace=wrap;html=1;fontSize=24;" vertex="1" parent="1">
                    <mxGeometry x="170" y="5900" width="80" height="60" as="geometry"/>
                </mxCell>
                <mxCell id="5" value="a&lt;span style=&quot;color: rgba(0, 0, 0, 0); font-family: monospace; font-size: 0px; text-align: start;&quot;&gt;%3CmxGraphModel%3E%3Croot%3E%3CmxCell%20id%3D%220%22%2F%3E%3CmxCell%20id%3D%221%22%20parent%3D%220%22%2F%3E%3CmxCell%20id%3D%222%22%20value%3D%22%22%20style%3D%22rounded%3D0%3BwhiteSpace%3Dwrap%3Bhtml%3D1%3BfontSize%3D24%3B%22%20vertex%3D%221%22%20parent%3D%221%22%3E%3CmxGeometry%20x%3D%2290%22%20y%3D%225890%22%20width%3D%2280%22%20height%3D%2260%22%20as%3D%22geometry%22%2F%3E%3C%2FmxCell%3E%3C%2Froot%3E%3C%2FmxGraphModel%3E&lt;/span&gt;" style="rounded=0;whiteSpace=wrap;html=1;fontSize=24;" vertex="1" parent="1">
                    <mxGeometry x="245" y="5900" width="80" height="60" as="geometry"/>
                </mxCell>
                <mxCell id="6" value="d" style="rounded=0;whiteSpace=wrap;html=1;fontSize=24;" vertex="1" parent="1">
                    <mxGeometry x="315" y="5900" width="85" height="60" as="geometry"/>
                </mxCell>
                <mxCell id="7" value="a" style="rounded=0;whiteSpace=wrap;html=1;fontSize=24;" vertex="1" parent="1">
                    <mxGeometry x="390" y="5900" width="85" height="60" as="geometry"/>
                </mxCell>
                <mxCell id="8" value="m" style="rounded=0;whiteSpace=wrap;html=1;fontSize=24;" vertex="1" parent="1">
                    <mxGeometry x="475" y="5900" width="85" height="60" as="geometry"/>
                </mxCell>
                <mxCell id="9" value="0" style="text;html=1;align=center;verticalAlign=middle;resizable=0;points=[];autosize=1;strokeColor=none;fillColor=none;fontSize=24;" vertex="1" parent="1">
                    <mxGeometry x="190" y="5960" width="40" height="40" as="geometry"/>
                </mxCell>
                <mxCell id="10" value="1" style="text;html=1;align=center;verticalAlign=middle;resizable=0;points=[];autosize=1;strokeColor=none;fillColor=none;fontSize=24;" vertex="1" parent="1">
                    <mxGeometry x="265" y="5960" width="40" height="40" as="geometry"/>
                </mxCell>
                <mxCell id="11" value="2" style="text;html=1;align=center;verticalAlign=middle;resizable=0;points=[];autosize=1;strokeColor=none;fillColor=none;fontSize=24;" vertex="1" parent="1">
                    <mxGeometry x="330" y="5960" width="40" height="40" as="geometry"/>
                </mxCell>
                <mxCell id="12" value="3" style="text;html=1;align=center;verticalAlign=middle;resizable=0;points=[];autosize=1;strokeColor=none;fillColor=none;fontSize=24;" vertex="1" parent="1">
                    <mxGeometry x="415" y="5960" width="40" height="40" as="geometry"/>
                </mxCell>
                <mxCell id="13" value="4" style="text;html=1;align=center;verticalAlign=middle;resizable=0;points=[];autosize=1;strokeColor=none;fillColor=none;fontSize=24;" vertex="1" parent="1">
                    <mxGeometry x="490" y="5960" width="40" height="40" as="geometry"/>
                </mxCell>
                <mxCell id="14" value="charArray[]" style="text;html=1;align=center;verticalAlign=middle;resizable=0;points=[];autosize=1;strokeColor=none;fillColor=none;fontSize=24;" vertex="1" parent="1">
                    <mxGeometry x="27.5" y="5910" width="140" height="40" as="geometry"/>
                </mxCell>
                <mxCell id="15" value="isPalindrome(&quot;madam&quot;);" style="text;html=1;align=center;verticalAlign=middle;resizable=0;points=[];autosize=1;strokeColor=none;fillColor=none;fontSize=24;" vertex="1" parent="1">
                    <mxGeometry x="35" y="6130" width="280" height="40" as="geometry"/>
                </mxCell>
                <mxCell id="16" value="word = &quot;madam&quot;&lt;br&gt;start = 0&lt;br&gt;end = 3" style="text;html=1;align=left;verticalAlign=middle;resizable=0;points=[];autosize=1;strokeColor=none;fillColor=none;fontSize=24;" vertex="1" parent="1">
                    <mxGeometry x="40" y="6010" width="200" height="100" as="geometry"/>
                </mxCell>
                <mxCell id="17" value="&lt;div style=&quot;color: rgb(201, 209, 217); background-color: rgb(13, 17, 23); font-family: Consolas, &amp;quot;Courier New&amp;quot;, monospace; font-size: 14px; line-height: 19px;&quot;&gt;&lt;div&gt;&lt;span style=&quot;color: #8b949e;&quot;&gt;//Q8. Given a string, the task is check whether given string is palindrome or not.&lt;/span&gt;&lt;/div&gt;&lt;div&gt;&lt;span style=&quot;color: #ec8e2c;&quot;&gt;public&lt;/span&gt; &lt;span style=&quot;color: #ec8e2c;&quot;&gt;static&lt;/span&gt; &lt;span style=&quot;color: #ec8e2c;&quot;&gt;boolean&lt;/span&gt; &lt;span style=&quot;color: #d2a8ff;&quot;&gt;isPalindrome&lt;/span&gt;(&lt;span style=&quot;color: #fdac54;&quot;&gt;String&lt;/span&gt; &lt;span style=&quot;color: #fdac54;&quot;&gt;word&lt;/span&gt;){&lt;/div&gt;&lt;div&gt;&amp;nbsp;&lt;span style=&quot;color: #ec8e2c;&quot;&gt;char&lt;/span&gt;&lt;span style=&quot;color: #fdac54;&quot;&gt;[] &lt;/span&gt;charArray&lt;span style=&quot;color: #fdac54;&quot;&gt; &lt;/span&gt;&lt;span style=&quot;color: #ec8e2c;&quot;&gt;=&lt;/span&gt; &lt;span style=&quot;color: #fdac54;&quot;&gt;word&lt;/span&gt;.&lt;span style=&quot;color: #d2a8ff;&quot;&gt;toCharArray&lt;/span&gt;();&lt;/div&gt;&lt;div&gt;&amp;nbsp; &lt;span style=&quot;color: #ec8e2c;&quot;&gt;int&lt;/span&gt;&lt;span style=&quot;color: #fdac54;&quot;&gt; &lt;/span&gt;left&lt;span style=&quot;color: #fdac54;&quot;&gt; &lt;/span&gt;&lt;span style=&quot;color: #ec8e2c;&quot;&gt;=&lt;/span&gt; &lt;span style=&quot;color: #79c0ff;&quot;&gt;0&lt;/span&gt;, right &lt;span style=&quot;color: #ec8e2c;&quot;&gt;=&lt;/span&gt; charArray.&lt;span style=&quot;color: #79c0ff;&quot;&gt;length&lt;/span&gt; &lt;span style=&quot;color: #ec8e2c;&quot;&gt;-&lt;/span&gt;&lt;span style=&quot;color: #79c0ff;&quot;&gt;1&lt;/span&gt;;&lt;/div&gt;&lt;br&gt;&lt;div&gt;&amp;nbsp; &lt;span style=&quot;color: #ec8e2c;&quot;&gt;while&lt;/span&gt;(left &lt;span style=&quot;color: #ec8e2c;&quot;&gt;&amp;lt;&lt;/span&gt; right){&lt;/div&gt;&lt;div&gt;&amp;nbsp; &amp;nbsp; &lt;span style=&quot;color: #ec8e2c;&quot;&gt;if&lt;/span&gt;(charArray[left] &lt;span style=&quot;color: #ec8e2c;&quot;&gt;!=&lt;/span&gt; charArray[right]){&lt;/div&gt;&lt;div&gt;&amp;nbsp; &amp;nbsp; &amp;nbsp; &lt;span style=&quot;color: #ec8e2c;&quot;&gt;return&lt;/span&gt; &lt;span style=&quot;color: #79c0ff;&quot;&gt;false&lt;/span&gt;;&lt;/div&gt;&lt;div&gt;&amp;nbsp; &amp;nbsp; }&lt;/div&gt;&lt;div&gt;&amp;nbsp; &amp;nbsp; left&lt;span style=&quot;color: #ec8e2c;&quot;&gt;++&lt;/span&gt;;&lt;/div&gt;&lt;div&gt;&amp;nbsp; &amp;nbsp; right&lt;span style=&quot;color: #ec8e2c;&quot;&gt;--&lt;/span&gt;;&lt;/div&gt;&lt;div&gt;&amp;nbsp; }&lt;/div&gt;&lt;div&gt;&amp;nbsp; &lt;span style=&quot;color: #ec8e2c;&quot;&gt;return&lt;/span&gt; &lt;span style=&quot;color: #79c0ff;&quot;&gt;true&lt;/span&gt;;&lt;/div&gt;&lt;div&gt;}&lt;/div&gt;&lt;/div&gt;" style="text;html=1;align=left;verticalAlign=middle;resizable=0;points=[];autosize=1;strokeColor=none;fillColor=none;fontSize=24;" vertex="1" parent="1">
                    <mxGeometry x="430" y="6030" width="650" height="280" as="geometry"/>
                </mxCell>
            </root>
        </mxGraphModel>
    </diagram>
</mxfile>